<svg class="img-fluid" id="outputsvg" xmlns="http://www.w3.org/2000/svg" width="1024" height="1024"
     viewBox="0 0 10240 10240"
     style="='transform-origin: 50% 50% 0px; cursor: move; transition: transform 200ms ease-in-out;">
    <g id="l40XaId60ThfJSjokh0UcMU" fill="rgb(255,255,255)" style="transform: none;">
        <g style="transform: none;">
            <path id="pY4xvr1H1"
                  d="M3045 8755 c-25 -24 -25 -25 -25 -220 0 -195 0 -196 25 -220 29 -30 35 -31 69 -4 23 18 26 27 26 85 0 35 3 64 6 64 3 0 42 -38 87 -85 86 -89 117 -104 151 -69 27 27 18 51 -49 126 -36 40 -65 78 -65 83 0 6 34 52 75 103 41 51 75 101 75 111 0 25 -32 51 -61 51 -27 0 -76 -47 -147 -137 -38 -49 -41 -51 -56 -34 -10 11 -16 36 -16 72 0 60 -5 71 -37 88 -29 15 -30 15 -58 -14z"></path>
            <path id="p10sZGCcbN"
                  d="M3601 8761 c-12 -12 -21 -33 -21 -48 -1 -16 -1 -109 -1 -208 0 -172 1 -181 22 -197 27 -23 41 -23 70 1 24 19 24 21 24 225 0 219 -1 225 -52 240 -15 5 -28 1 -42 -13z"></path>
            <path id="p2RzVm0Ue"
                  d="M4580 8772 c-35 -11 -40 -34 -40 -188 l0 -151 -56 -6 c-65 -7 -94 -28 -94 -68 0 -52 26 -59 207 -59 150 0 165 2 183 20 25 25 26 62 1 84 -10 9 -41 19 -70 23 l-51 6 0 152 c0 132 -2 154 -17 167 -23 19 -44 26 -63 20z"></path>
            <path id="p16ZjZGxr3"
                  d="M5479 8761 c-24 -19 -24 -21 -24 -227 l0 -207 27 -20 c40 -30 63 -15 150 95 112 140 108 139 108 19 0 -97 1 -101 25 -117 32 -21 71 -7 85 32 6 14 10 110 10 213 0 172 -2 189 -19 205 -40 37 -69 19 -163 -99 -48 -60 -92 -111 -98 -113 -6 -2 -10 34 -10 96 0 97 -1 101 -26 121 -33 26 -36 26 -65 2z"></path>
            <path id="pSDQKz3aC"
                  d="M6110 8765 c-25 -8 -58 -27 -74 -44 -24 -25 -26 -31 -15 -49 22 -35 55 -44 96 -27 49 20 79 19 104 -6 27 -27 13 -44 -50 -59 -102 -24 -147 -77 -138 -159 6 -55 53 -104 117 -121 53 -14 129 2 168 35 25 21 26 25 12 50 -21 39 -44 48 -86 35 -48 -16 -84 -6 -84 24 0 19 8 26 48 36 108 30 152 72 152 148 0 107 -127 177 -250 137z"></path>
            <path id="p0EERkAXh"
                  d="M4016 8748 c-13 -18 -16 -53 -16 -175 l0 -153 -55 0 c-43 0 -58 -5 -75 -22 -25 -27 -25 -39 1 -72 l20 -26 164 0 c156 0 165 1 185 22 45 48 9 98 -70 98 l-50 0 0 158 c0 141 -2 161 -18 175 -26 24 -68 21 -86 -5z"></path>
            <path id="pZrF4qGsq"
                  d="M4970 8750 c-19 -19 -20 -33 -20 -219 0 -247 -12 -231 172 -231 115 0 130 2 148 20 11 11 20 29 20 40 0 11 -9 29 -20 40 -17 17 -33 20 -110 20 l-90 0 0 30 0 30 63 0 c76 0 107 18 107 61 0 37 -27 49 -111 49 -58 0 -59 0 -59 29 l0 29 96 4 c104 4 124 15 124 64 0 44 -33 54 -172 54 -115 0 -130 -2 -148 -20z"></path>
            <path id="pjiTGpXGr"
                  d="M1980 8570 c-24 -24 -25 -38 -4 -68 15 -22 16 -22 334 -22 l320 0 17 26 c15 24 15 29 2 53 l-15 26 -317 3 c-306 2 -317 2 -337 -18z"></path>
            <path id="pjNWXuVNZ"
                  d="M6706 8568 c-21 -30 -20 -44 4 -68 19 -19 33 -20 364 -20 l345 0 15 22 c21 29 20 51 -2 71 -17 15 -57 17 -365 17 l-346 0 -15 -22z"></path>
            <path id="pHffnCP5b"
                  d="M5375 8028 c-42 -15 -75 -46 -96 -93 -17 -37 -19 -77 -19 -625 0 -558 1 -587 20 -628 15 -33 29 -47 62 -62 100 -45 122 -31 334 224 183 218 243 286 255 286 6 0 77 -81 331 -382 90 -105 115 -129 148 -139 54 -16 109 0 149 46 l31 36 0 618 0 618 -23 33 c-63 94 -205 97 -270 6 -21 -30 -22 -39 -25 -318 -2 -159 -5 -288 -7 -288 -7 0 -76 78 -184 207 -102 123 -126 141 -174 129 -13 -3 -83 -77 -167 -175 -79 -94 -145 -169 -147 -168 -1 2 -4 131 -6 289 -3 261 -5 288 -23 319 -35 59 -124 91 -189 67z"></path>
            <path id="p1FdaaqMi6"
                  d="M2045 8016 c-250 -57 -446 -245 -526 -506 -33 -105 -33 -271 -1 -385 72 -251 267 -446 513 -512 87 -23 262 -23 349 1 135 37 274 123 300 185 10 26 10 35 -6 60 -39 61 -134 179 -150 185 -11 4 -39 -8 -78 -33 -103 -66 -197 -89 -297 -71 -145 26 -242 110 -289 250 -31 91 -25 213 13 292 99 201 354 266 559 142 52 -32 63 -35 81 -24 33 18 167 189 167 213 0 49 -141 146 -275 189 -79 26 -276 33 -360 14z"></path>
            <path id="pO2EJiwAJ"
                  d="M3255 8014 c-227 -50 -406 -216 -482 -449 -22 -69 -26 -98 -27 -205 0 -112 3 -134 28 -205 41 -118 80 -181 170 -271 89 -88 155 -130 261 -166 101 -33 287 -33 395 1 94 29 130 47 207 106 111 83 208 238 238 380 31 148 12 323 -50 447 -64 127 -181 250 -290 306 -128 65 -309 87 -450 56z m279 -358 c97 -48 168 -152 182 -268 15 -125 -62 -264 -180 -326 -71 -37 -188 -38 -260 -3 -182 90 -244 338 -125 500 90 121 250 162 383 97z"></path>
            <path id="pEGJQhnZq"
                  d="M4488 8020 c-155 -28 -294 -104 -325 -177 -12 -29 -11 -37 3 -66 28 -54 95 -151 118 -169 30 -25 45 -22 103 17 142 96 333 100 369 9 11 -26 10 -36 -4 -65 -22 -45 -64 -71 -164 -104 -203 -67 -306 -138 -359 -248 -34 -73 -44 -138 -30 -213 48 -262 309 -409 627 -353 75 13 220 83 245 119 36 50 33 70 -20 153 -81 129 -87 133 -156 96 -103 -56 -240 -78 -296 -49 -47 25 -59 42 -59 86 0 60 41 93 166 134 256 86 363 181 395 354 22 123 -29 266 -129 357 -60 55 -89 72 -171 101 -64 22 -236 32 -313 18z"></path>
            <path id="pGBg7jJtd"
                  d="M7226 8015 c-166 -42 -329 -174 -408 -329 -60 -118 -88 -278 -69 -402 24 -165 85 -288 197 -399 87 -87 171 -137 277 -165 109 -30 297 -25 395 10 136 48 276 166 346 293 64 116 81 185 81 337 0 169 -21 243 -107 372 -90 134 -200 220 -341 270 -81 28 -283 35 -371 13z m297 -355 c126 -60 205 -214 178 -348 -31 -156 -143 -261 -286 -270 -121 -8 -229 59 -287 176 -30 60 -33 75 -33 157 0 78 4 97 27 141 34 65 113 136 175 157 65 23 163 17 226 -13z"></path>
            <path id="pFxaMfgMg"
                  d="M6899 6173 c-6 -16 -16 -48 -22 -73 -17 -64 -68 -113 -147 -139 -36 -12 -71 -25 -79 -30 -27 -17 -1 -40 84 -72 97 -37 109 -49 145 -149 40 -112 52 -112 89 0 12 36 28 76 37 88 18 26 66 52 141 76 89 29 82 47 -34 90 -39 15 -83 39 -97 52 -14 14 -37 61 -51 105 -28 84 -48 100 -66 52z"></path>
            <path id="pzLF6oGxu"
                  d="M2325 5986 c-186 -36 -314 -125 -379 -262 -115 -243 35 -640 427 -1129 150 -186 200 -240 219 -232 14 5 16 26 13 159 l-3 153 -76 114 c-162 243 -254 474 -243 609 9 112 85 199 210 238 68 21 257 29 383 15 251 -27 620 -122 964 -248 217 -79 630 -265 768 -346 l62 -36 52 24 c106 48 210 43 333 -17 76 -37 139 -98 170 -165 20 -41 25 -68 25 -130 l0 -78 73 -50 c39 -27 106 -77 147 -110 71 -58 77 -60 109 -51 46 13 148 -5 217 -39 119 -58 207 -184 220 -315 l7 -65 148 -153 c337 -348 488 -542 607 -778 90 -180 106 -314 46 -410 -87 -142 -315 -150 -661 -24 -162 59 -147 60 -273 -23 -51 -33 -65 -48 -65 -67 0 -30 27 -46 225 -134 297 -131 487 -184 695 -193 146 -6 215 6 315 57 73 37 152 123 181 198 32 81 32 261 1 380 -70 261 -242 549 -527 880 -126 147 -571 594 -715 719 -204 176 -529 419 -762 569 -707 455 -1546 801 -2230 919 -128 23 -191 28 -383 31 -167 2 -249 0 -300 -10z"></path>
            <path id="p4VtdoDwO"
                  d="M4541 5909 c-22 -21 -41 -59 -41 -84 0 -7 12 -27 26 -44 35 -42 84 -43 125 -2 32 33 37 67 14 110 -24 47 -85 56 -124 20z"></path>
            <path id="pEwaF6FDM"
                  d="M6131 5784 c-12 -15 -21 -34 -21 -43 0 -9 29 -56 65 -106 280 -391 413 -861 377 -1339 -6 -84 -14 -160 -18 -169 -8 -22 110 -147 125 -132 24 26 61 309 61 475 0 108 -24 311 -50 432 -67 303 -225 627 -417 856 -53 62 -88 69 -122 26z"></path>
            <path id="p1GXQIdd3I"
                  d="M5773 5623 c-27 -81 -46 -105 -111 -136 -35 -18 -65 -36 -66 -42 0 -5 18 -20 42 -32 77 -39 93 -54 118 -110 13 -30 29 -53 35 -51 6 2 20 28 32 58 21 52 26 57 90 88 40 19 67 38 67 48 0 9 -25 27 -63 44 -60 27 -65 32 -90 89 -27 62 -43 75 -54 44z"></path>
            <path id="pUqnmv11w"
                  d="M2938 5487 c-66 -99 -147 -323 -183 -502 -113 -564 -10 -1132 290 -1590 343 -525 839 -847 1448 -941 141 -22 438 -22 581 0 245 38 472 115 681 229 272 148 561 402 700 615 l28 42 -37 54 c-20 30 -46 62 -58 72 -20 19 -21 19 -37 -6 -43 -66 -146 -185 -242 -280 -376 -373 -924 -579 -1440 -540 -570 43 -1058 309 -1397 762 -188 252 -310 535 -368 853 -26 143 -26 528 -1 670 26 142 83 335 128 436 22 48 39 94 39 103 0 20 -50 46 -88 46 -20 0 -35 -8 -44 -23z"></path>
            <path id="pLMQ5BuIO"
                  d="M3530 5373 c0 -8 7 -43 16 -77 53 -206 237 -387 449 -441 65 -16 161 -20 169 -6 3 4 -4 39 -14 77 -11 38 -27 109 -35 158 -8 49 -16 90 -17 91 -13 9 -367 146 -455 176 -92 30 -113 35 -113 22z"></path>
            <path id="pgxo9WTw7"
                  d="M7084 5120 c-28 -11 -54 -48 -54 -78 0 -33 43 -72 78 -72 66 0 103 75 60 123 -27 30 -55 39 -84 27z"></path>
            <path id="p1Hmkeh25"
                  d="M4234 5088 c3 -13 10 -50 17 -83 16 -83 56 -210 86 -268 l24 -48 -63 6 c-35 4 -68 8 -75 10 -23 7 -146 -16 -194 -36 -76 -33 -77 -40 -9 -84 63 -41 95 -78 86 -100 -3 -9 -31 -14 -85 -16 l-80 -4 -57 -55 c-122 -119 -219 -278 -255 -418 -26 -104 -25 -119 12 -141 50 -31 198 -53 341 -53 l128 1 16 -32 c40 -78 135 -188 209 -244 76 -58 219 -126 311 -148 l72 -17 11 -72 c13 -87 53 -218 81 -263 10 -18 31 -35 46 -39 91 -23 345 221 445 428 26 54 30 56 111 65 38 4 58 10 58 19 0 7 -11 43 -24 79 l-24 65 27 0 c14 0 52 -16 84 -36 32 -20 60 -34 63 -31 8 7 7 157 -1 209 -6 39 -13 51 -39 67 -42 26 -118 106 -149 157 -62 100 -76 249 -32 343 14 30 24 55 23 56 -2 0 -46 33 -99 73 -52 40 -102 72 -110 72 -9 0 -26 -11 -38 -24 -13 -13 -46 -35 -74 -48 -43 -19 -69 -23 -152 -23 -92 0 -105 2 -165 32 -73 36 -90 49 -142 114 -69 84 -95 187 -73 292 l12 58 -81 44 c-75 41 -231 115 -242 115 -2 0 -2 -10 0 -22z m336 -868 c43 -43 50 -72 26 -118 -17 -34 -44 -58 -77 -70 -41 -16 -103 17 -129 68 -21 40 -21 42 -3 78 21 44 75 82 114 82 20 0 41 -12 69 -40z m-581 -209 c12 -55 9 -61 -33 -61 -43 0 -149 20 -159 30 -13 12 46 119 110 200 l58 73 7 -99 c3 -54 11 -119 17 -143z m1010 87 c54 -1 54 -2 11 -5 -28 -3 -54 -12 -67 -25 l-23 -21 1 59 c1 56 2 57 11 27 10 -32 13 -33 67 -35z m-89 -128 c0 -35 -21 -40 -58 -14 -18 13 -21 19 -11 30 6 8 24 14 40 14 26 0 29 -4 29 -30z m250 -150 c36 -34 46 -71 30 -111 -15 -34 -74 -79 -105 -79 -31 0 -90 45 -105 79 -18 44 12 99 68 128 49 24 71 21 112 -17z m-128 -527 c-17 -21 -48 -55 -70 -77 l-40 -39 -16 54 c-9 29 -16 58 -16 65 0 12 35 20 125 27 22 2 42 4 43 5 2 1 -10 -15 -26 -35z"></path>
            <path id="pImqNAZVX"
                  d="M4840 4951 c-14 -4 -35 -22 -47 -41 -43 -68 -49 -74 -66 -67 -12 5 -17 18 -17 48 0 41 0 42 -20 24 -74 -67 -25 -234 89 -302 136 -81 291 -41 334 86 14 42 15 60 7 92 -10 36 -63 109 -79 109 -4 0 -27 -27 -51 -60 -48 -67 -76 -82 -97 -54 -18 24 -16 43 7 89 26 51 25 71 -2 79 -26 6 -24 7 -58 -3z"></path>
            <path id="pnnmgdEFI"
                  d="M3326 4871 c-22 -42 -33 -52 -81 -72 -66 -27 -68 -44 -9 -68 54 -21 71 -36 95 -83 11 -21 24 -38 29 -38 5 0 21 22 35 50 21 41 33 53 75 71 28 12 49 27 47 33 -2 6 -28 25 -58 41 -44 25 -57 38 -69 73 -8 23 -20 42 -27 42 -7 0 -24 -22 -37 -49z"></path>
            <path id="p1EGcBRO0"
                  d="M7140 4444 c-6 -14 -10 -29 -10 -34 0 -22 -54 -69 -97 -85 -50 -19 -73 -33 -73 -45 0 -4 32 -21 71 -38 68 -30 71 -33 96 -92 15 -33 30 -60 35 -60 4 0 21 28 36 63 27 59 32 64 90 90 34 15 64 32 67 38 4 5 -23 23 -59 39 -68 31 -85 49 -107 113 -15 43 -35 48 -49 11z"></path>
            <path id="pNhfC27sv"
                  d="M2003 4400 c-43 -18 -59 -93 -25 -123 25 -23 78 -21 102 3 30 30 27 83 -6 109 -29 23 -38 24 -71 11z"></path>
            <path id="pmiXWk4rR"
                  d="M5585 4322 c-113 -40 -139 -115 -85 -239 24 -55 103 -133 162 -161 65 -30 143 -30 188 1 35 23 56 67 46 93 -5 14 -8 14 -28 0 -41 -29 -88 -17 -88 23 0 4 20 21 45 39 33 23 45 38 45 57 0 37 -23 86 -53 114 l-26 24 -52 -57 c-52 -57 -91 -72 -103 -40 -10 27 -7 39 25 88 17 26 29 49 26 52 -9 9 -81 13 -102 6z"></path>
            <path id="pIc4D7pjH"
                  d="M2196 3742 c-21 -41 -33 -52 -75 -70 -61 -25 -65 -46 -13 -62 47 -16 69 -35 93 -82 11 -21 24 -38 29 -38 5 0 17 17 25 37 21 51 39 68 85 83 54 18 51 40 -10 68 -38 18 -53 32 -70 67 -12 25 -26 45 -31 45 -5 0 -20 -22 -33 -48z"></path>
            <path id="prpApXDei"
                  d="M7275 3639 c-51 -29 -61 -90 -22 -127 67 -63 169 36 110 106 -22 26 -62 35 -88 21z"></path>
            <path id="p4Y5IJGo0"
                  d="M4087 3328 c-20 -46 -32 -57 -82 -83 -32 -16 -59 -34 -59 -40 -1 -5 26 -23 59 -40 49 -24 64 -38 83 -75 12 -25 27 -47 32 -48 6 -2 19 16 30 40 23 53 40 69 103 97 65 28 61 39 -28 78 -31 14 -45 29 -65 70 -14 29 -30 52 -37 53 -6 0 -22 -24 -36 -52z"></path>
            <path id="pErglpfr6"
                  d="M2372 3218 c-5 -7 -24 -62 -42 -123 -17 -60 -39 -123 -49 -140 -21 -37 -73 -67 -172 -100 -87 -29 -115 -46 -107 -66 3 -8 53 -31 111 -52 59 -21 118 -48 132 -59 34 -26 60 -80 86 -175 27 -100 45 -135 67 -131 17 3 25 23 72 186 29 102 53 124 184 171 60 22 113 44 119 50 20 20 -3 38 -80 66 -179 65 -197 82 -239 241 -34 129 -55 164 -82 132z"></path>
            <path id="pCaPROFXx"
                  d="M3149 2513 c-26 -79 -58 -113 -127 -138 -105 -38 -104 -56 8 -99 78 -31 94 -48 115 -121 29 -98 51 -99 80 -6 22 75 46 99 122 130 67 28 85 40 80 54 -2 6 -41 29 -88 51 -91 44 -81 32 -129 164 -7 17 -18 32 -25 32 -8 0 -23 -30 -36 -67z"></path>
            <path id="plYPVndGu"
                  d="M5866 2252 c-3 -6 -15 -39 -26 -75 -26 -83 -50 -108 -141 -142 -40 -15 -78 -31 -83 -36 -16 -14 10 -33 79 -59 83 -31 107 -52 130 -116 42 -114 44 -117 59 -104 8 6 24 40 36 75 29 87 48 108 127 141 114 46 117 58 26 94 -106 42 -119 54 -149 133 -28 77 -47 106 -58 89z"></path>
            <path id="pKnJgOT3P"
                  d="M4171 2036 c-44 -47 -23 -116 41 -131 22 -6 33 -1 59 24 26 27 30 37 25 64 -12 64 -82 88 -125 43z"></path>
            <path id="p1G2ZcKSp8"
                  d="M5002 1967 c-47 -50 -15 -127 51 -127 68 0 103 83 54 128 -31 29 -77 29 -105 -1z"></path>
        </g>
    </g>
    <g id="l3nc8EXSYlqfTvZxp2N3PZi" fill="rgb(0, 0, 0)" style="transform: none;">
        <g style="transform: none;">
            <path id="paCUg2fzC"
                  d="M4431 4278 c-57 -29 -82 -64 -88 -120 -18 -157 195 -231 277 -96 45 74 31 153 -36 204 -48 37 -99 41 -153 12z"></path>
            <path id="p8R4tsYfC"
                  d="M4776 4244 c-9 -8 -16 -26 -16 -40 0 -23 3 -24 39 -18 54 9 91 -26 91 -85 0 -57 -8 -71 -41 -71 -35 0 -64 -38 -54 -70 8 -26 61 -60 93 -60 13 0 33 5 44 11 17 9 19 17 14 49 -5 32 -2 44 20 69 39 46 101 36 125 -20 12 -31 28 -36 47 -17 23 23 14 68 -22 104 -31 31 -40 34 -90 34 -34 0 -56 4 -56 11 0 27 -36 83 -64 100 -38 23 -109 25 -130 3z"></path>
            <path id="ppfT1iRwj"
                  d="M5020 3868 c-51 -27 -80 -74 -80 -131 0 -153 217 -194 281 -53 10 23 19 52 19 66 0 38 -41 101 -80 121 -46 25 -86 24 -140 -3z"></path>
        </g>
    </g>
    <g id="l3USRg1UOY50jfsw4KXNHFJ" fill="rgb(255,148,255)" style="transform: none;">
        <g style="transform: none;">
            <path id="pTL0oTuEK"
                  d="M3973 4309 c-71 -45 -194 -225 -221 -321 l-10 -36 52 -14 c51 -13 239 -18 250 -7 4 3 0 24 -8 46 -24 69 -39 193 -32 276 4 42 5 77 4 77 -2 0 -18 -10 -35 -21z"></path>
            <path id="pPR2mIffM"
                  d="M5092 3369 c-26 -10 -213 -29 -224 -23 -13 8 -16 -12 -7 -73 10 -74 36 -143 54 -143 31 0 168 149 219 238 8 14 -9 15 -42 1z"></path>
        </g>
    </g>
</svg>